<?xml version="1.0" encoding="iso-8859-1"?>
<!-- Generator: Adobe Illustrator 19.0.0, SVG Export Plug-In . SVG Version: 6.00 Build 0)  -->
<svg version="1.1" id="Layer_1" xmlns="http://www.w3.org/2000/svg" xmlns:xlink="http://www.w3.org/1999/xlink" x="0px" y="0px"
	 viewBox="0 0 512 512" style="enable-background:new 0 0 512 512;" xml:space="preserve">
<g>
	<g>
		<rect width="66.783" height="33.391"/>
	</g>
</g>
<g>
	<g>
		<polygon points="166.957,322.783 166.957,222.609 133.565,222.609 133.565,389.565 166.957,389.565 166.957,356.174 
			445.217,356.174 445.217,322.783 		"/>
	</g>
</g>
<g>
	<g>
		<rect x="445.217" y="222.609" width="33.391" height="100.174"/>
	</g>
</g>
<g>
	<g>
		<polygon points="100.174,89.044 100.174,33.391 66.783,33.391 66.783,122.435 100.174,122.435 100.174,222.609 133.565,222.609 
			133.565,122.435 233.739,122.435 233.739,89.044 		"/>
	</g>
</g>
<g>
	<g>
		<polygon points="378.435,89.044 378.435,122.435 478.609,122.435 478.609,222.609 512,222.609 512,89.044 		"/>
	</g>
</g>
<g>
	<g>
		<rect x="200.348" y="478.609" width="55.652" height="33.391"/>
	</g>
</g>
<g>
	<g>
		<rect x="389.565" y="478.609" width="55.652" height="33.391"/>
	</g>
</g>
<g>
	<g>
		<rect x="445.217" y="422.957" width="33.391" height="55.652"/>
	</g>
</g>
<g>
	<g>
		<polygon points="389.565,389.565 256,389.565 200.348,389.565 166.957,389.565 166.957,478.609 200.348,478.609 200.348,422.957 
			256,422.957 256,478.609 289.391,478.609 289.391,422.957 356.174,422.957 356.174,478.609 389.565,478.609 389.565,422.957 
			445.217,422.957 445.217,389.565 		"/>
	</g>
</g>
<g>
	<g>
		<polygon points="322.783,222.609 322.783,0 289.391,0 289.391,222.609 256,222.609 256,256 289.391,256 289.391,289.391 
			322.783,289.391 322.783,256 356.174,256 356.174,222.609 		"/>
	</g>
</g>
<g>
	<g>
		<rect x="222.609" y="189.217" width="33.391" height="33.391"/>
	</g>
</g>
<g>
	<g>
		<rect x="356.174" y="189.217" width="33.391" height="33.391"/>
	</g>
</g>
<g>
</g>
<g>
</g>
<g>
</g>
<g>
</g>
<g>
</g>
<g>
</g>
<g>
</g>
<g>
</g>
<g>
</g>
<g>
</g>
<g>
</g>
<g>
</g>
<g>
</g>
<g>
</g>
<g>
</g>
</svg>
