<?xml version="1.0" encoding="iso-8859-1"?>
<!-- Generator: Adobe Illustrator 19.0.0, SVG Export Plug-In . SVG Version: 6.00 Build 0)  -->
<svg version="1.1" id="Layer_1" xmlns="http://www.w3.org/2000/svg" xmlns:xlink="http://www.w3.org/1999/xlink" x="0px" y="0px"
	 viewBox="0 0 512 512" style="enable-background:new 0 0 512 512;" xml:space="preserve">
<g>
	<g>
		<path d="M478.609,100.174V66.783h-33.391V33.391h-33.391V0H200.348v33.391h-33.391v33.391h-33.391v33.391h-33.391v244.87H66.783
			v33.391H33.391v33.391H0v66.783h33.391V512h66.783v-33.391h33.391v-33.391h33.391v-33.391h244.87v-33.391h33.391v-33.391h33.391
			v-33.391H512V100.174H478.609z M445.217,278.261h-33.391v33.391h-33.391v33.391H233.739v-33.391h-33.391v-33.391h-33.391V133.565
			h33.391v-33.391h33.391V66.783h144.696v33.391h33.391v33.391h33.391V278.261z"/>
	</g>
</g>
<g>
</g>
<g>
</g>
<g>
</g>
<g>
</g>
<g>
</g>
<g>
</g>
<g>
</g>
<g>
</g>
<g>
</g>
<g>
</g>
<g>
</g>
<g>
</g>
<g>
</g>
<g>
</g>
<g>
</g>
</svg>
